<svg xmlns="http://www.w3.org/2000/svg" xmlns:xlink="http://www.w3.org/1999/xlink" width="512px" height="512px" viewBox="0 0 512 512" version="1.1" role="img">
  <title>Buy Dialog TV</title>
  <defs>
    <linearGradient x1="0%" y1="50%" x2="100%" y2="50%" id="linearGradient-1">
      <stop stop-color="#E14A32" offset="0%"/>
      <stop stop-color="#9F215D" offset="100%"/>
    </linearGradient>
  </defs>
  <g id="Dialog-TV" stroke="none" stroke-width="1" fill="none" fill-rule="evenodd">
    <path d="M177.230769,395 L177.230769,410 L334.769231,410 L334.769231,395 L177.230769,395 Z M428.215385,423 L83.7846154,423 C80.4709069,423 77.7846154,425.686292 77.7846154,429 C77.7846154,432.238397 80.3501903,434.877572 83.5596771,434.995862 L83.7846154,435 L428.215385,435 C431.529093,435 434.215385,432.313708 434.215385,429 C434.215385,425.686292 431.529093,423 428.215385,423 Z M466.028169,78 L45.971831,78 C32.8495453,78 22.1869853,88.5313372 21.971831,101.603116 L21.971831,102 L21.971831,357 C21.971831,370.122286 32.5031682,380.784846 45.5749471,380.996785 L45.971831,381 L466.028169,381 C479.150455,381 489.813015,370.468663 490.028169,357.396884 L490.028169,357 L490.028169,102 C490.028169,88.745166 479.283003,78 466.028169,78 Z M348.553846,410 L430,410 C439.830669,410 447.820682,417.880783 447.997024,427.669335 L448,428 L448,430 C448,439.830669 440.119217,447.820682 430.330665,448 L430,448 L82,448 C72.1693315,448 64.1793185,440.119217 64.0029763,430.330665 L64,430 L64,428 C64,418.169331 71.8807833,410.179318 81.6693348,410.002976 L82,410 L163.446154,410 L163.446154,395 L40,395 C22.326888,395 8,380.673112 8,363 L8,96 C8,78.326888 22.326888,64 40,64 L472,64 C489.673112,64 504,78.326888 504,96 L504,363 C504,380.673112 489.673112,395 472,395 L348.553846,395 L348.553846,410 Z" id="Combined-Shape" fill="url(#linearGradient-1)"/>
  </g>
</svg>