<svg xmlns="http://www.w3.org/2000/svg" xmlns:xlink="http://www.w3.org/1999/xlink" width="512px" height="512px" viewBox="0 0 512 512" version="1.1" role="img">
  <title>Buy Home Broadband</title>
  <defs>
    <linearGradient x1="0%" y1="50%" x2="100%" y2="50%" id="linearGradient-1">
      <stop stop-color="#E14A32" offset="0%"/>
      <stop stop-color="#9F215D" offset="100%"/>
    </linearGradient>
  </defs>
  <g id="HBB" stroke="none" stroke-width="1" fill="none" fill-rule="evenodd">
    <g transform="translate(33.000000, 28.000000)" fill="url(#linearGradient-1)" id="Combined-Shape">
      <path d="M333.000469,0 C344.598449,0 354.000469,9.4020203 354.000469,21 L354,193 L387.749053,193 C399.412885,193 409.367779,201.381322 411.384483,212.832457 L411.447423,213.206945 L445.69931,427.206945 C445.900079,428.461321 446.00094,429.729658 446.00094,431 C446.00094,444.122286 435.469603,454.784846 422.397824,454.996785 L422.00094,455 L24.0035574,455 C22.7332153,455 21.4648784,454.89914 20.2105019,454.69837 C7.25313611,452.624471 -1.61100319,440.540338 0.245637421,427.599349 L0.305187625,427.206945 L34.5570741,213.206945 C36.4004725,201.689702 46.2497702,193.184539 57.8757153,193.002964 L58.2554439,193 L98,193 L98.0004691,21 C98.0004691,9.4020203 107.402489,0 119.000469,0 C130.598449,0 140.000469,9.4020203 140.000469,21 L140,193 L312,193 L312.000469,21 C312.000469,9.4020203 321.402489,0 333.000469,0 Z M384.932995,207 L60.07306,207 C54.2084518,207 49.202968,211.238896 48.236969,217.023399 L13.1674417,427.023399 C12.0757954,433.560292 16.4900396,439.744445 23.0269322,440.836091 C23.6801473,440.945176 24.3412717,441 25.0035327,441 L420.002523,441 C426.62994,441 432.002523,435.627417 432.002523,429 C432.002523,428.337739 431.947699,427.676615 431.838614,427.023399 L396.769086,217.023399 C395.803087,211.238896 390.797604,207 384.932995,207 Z M223.500469,369 C233.165452,369 241.000469,376.835017 241.000469,386.5 C241.000469,396.164983 233.165452,404 223.500469,404 C213.835486,404 206.000469,396.164983 206.000469,386.5 C206.000469,376.835017 213.835486,369 223.500469,369 Z M184.086574,345.133859 C205.349861,324.332524 239.4464,323.547437 261.725267,343.348307 C261.888612,343.473365 262.030652,343.570632 262.158487,343.702638 L262.158487,343.702638 L262.932601,344.418248 C263.195374,344.654469 263.465249,344.883743 263.72092,345.140806 L263.72092,345.140806 L267.882672,349.337201 C269.906732,351.303393 271.007537,353.936561 271.000503,356.722578 C270.993333,359.522491 269.878324,362.155659 267.854264,364.128799 C263.671206,368.227926 256.881726,368.234874 252.719974,364.163537 L252.719974,364.163537 L248.423285,360.0922 C234.908244,346.877725 212.913455,346.877725 199.391311,360.099148 L199.391311,360.099148 L193.439864,365.921298 C189.242602,370.034321 182.389205,370.027373 178.170637,365.893508 C173.959171,361.773537 173.937865,355.069032 178.142229,350.956009 L178.142229,350.956009 L181.593784,347.57944 Z M158.89367,317.680247 C194.172261,284.428481 249.598848,283.464864 286.039139,314.810345 C286.609298,315.173447 287.150949,315.59241 287.649838,316.074219 L287.649838,316.074219 L290.48638,318.867311 C290.514887,318.874294 290.522014,318.895242 290.536268,318.909208 L290.536268,318.909208 L294.12827,322.428504 C297.969717,326.192197 297.955463,332.323035 294.099763,336.114658 C290.236935,339.899298 283.972312,339.913264 280.130866,336.149571 L280.130866,336.149571 L275.027942,331.142953 C246.270545,304.524781 201.01417,304.692367 172.484836,331.694589 C172.442074,331.729502 172.406439,331.778382 172.363677,331.834243 L172.363677,331.834243 L165.878118,338.181546 C162.029544,341.959204 155.779176,341.931273 151.916348,338.146633 C148.046394,334.355009 148.025013,328.231154 151.873586,324.467462 L151.873586,324.467462 L158.359145,318.106194 C158.530193,317.938608 158.722622,317.833867 158.89367,317.680247 Z M125.000469,228 C130.523317,228 135.000469,232.477153 135.000469,238 C135.000469,243.522847 130.523317,248 125.000469,248 C119.477622,248 115.000469,243.522847 115.000469,238 C115.000469,232.477153 119.477622,228 125.000469,228 Z M269.000469,228 C274.523317,228 279.000469,232.477153 279.000469,238 C279.000469,243.522847 274.523317,248 269.000469,248 C263.477622,248 259.000469,243.522847 259.000469,238 C259.000469,232.477153 263.477622,228 269.000469,228 Z M233.000469,228 C238.523317,228 243.000469,232.477153 243.000469,238 C243.000469,243.522847 238.523317,248 233.000469,248 C227.477622,248 223.000469,243.522847 223.000469,238 C223.000469,232.477153 227.477622,228 233.000469,228 Z M197.000469,228 C202.523317,228 207.000469,232.477153 207.000469,238 C207.000469,243.522847 202.523317,248 197.000469,248 C191.477622,248 187.000469,243.522847 187.000469,238 C187.000469,232.477153 191.477622,228 197.000469,228 Z M161.000469,228 C166.523317,228 171.000469,232.477153 171.000469,238 C171.000469,243.522847 166.523317,248 161.000469,248 C155.477622,248 151.000469,243.522847 151.000469,238 C151.000469,232.477153 155.477622,228 161.000469,228 Z M327.000469,228 C332.523317,228 337.000469,232.477153 337.000469,238 C337.000469,243.522847 332.523317,248 327.000469,248 L305.000469,248 C299.477622,248 295.000469,243.522847 295.000469,238 C295.000469,232.477153 299.477622,228 305.000469,228 L327.000469,228 Z M333.000469,14 C329.215018,14 326.13137,17.0047834 326.004528,20.7593503 L326.000469,21 L326,193 L340,193 L340.000469,21 C340.000469,17.1340068 336.866462,14 333.000469,14 Z M119.000469,14 C115.215018,14 112.13137,17.0047834 112.004528,20.7593503 L112.000469,21 L112,193 L126,193 L126.000469,21 C126.000469,17.1340068 122.866462,14 119.000469,14 Z"/>
    </g>
  </g>
</svg>