<svg xmlns="http://www.w3.org/2000/svg" xmlns:xlink="http://www.w3.org/1999/xlink" width="512px" height="512px" viewBox="0 0 512 512" version="1.1" role="img">
  <title>Buy SIM</title>
  <defs>
    <linearGradient x1="0%" y1="50%" x2="100%" y2="50%" id="linearGradient-1">
      <stop stop-color="#E14A32" offset="0%"/>
      <stop stop-color="#9F215D" offset="100%"/>
    </linearGradient>
  </defs>
  <g id="SIM" stroke="none" stroke-width="1" fill="none" fill-rule="evenodd">
    <g id="sim" transform="translate(86.000000, 16.000000)" fill="url(#linearGradient-1)">
      <path d="M290.000358,0 C317.560021,0 340,22.44 340,49.9996875 L340,49.9996875 L340,430.000313 C340,457.56 317.560021,480 290.000358,480 L290.000358,480 L50.000579,480 C22.4409169,480 0,457.56 0,429.999375 L0,429.999375 L0,109.999687 C0,107.34 1.06031153,104.799375 2.92030982,102.919688 L2.92030982,102.919688 L102.92053,2.9203125 C104.800216,1.0603125 107.340839,0 110.000524,0 L110.000524,0 Z M290.000358,19.9996875 L114.14052,19.9996875 L20.0006066,114.139687 L20.0006066,430.000312 C20.0006066,446.540625 33.4602817,460.000312 50.000579,460.000312 L50.000579,460.000312 L290.000358,460.000312 C306.540656,460.000312 320.000331,446.540625 320.000331,430.000312 L320.000331,430.000312 L320.000331,49.9996875 C320.000331,33.459375 306.540656,19.9996875 290.000358,19.9996875 L290.000358,19.9996875 Z M249.999105,160 C266.539394,160 280,173.459704 280,190.000036 L280,190.000036 L280,389.999964 C280,406.540296 266.540332,420 250.000043,420 L250.000043,420 L89.9999574,420 C73.4596684,420 60,406.540296 60,389.999964 L60,389.999964 L60,190.000036 C60,173.459704 73.4596684,160 89.9999574,160 L89.9999574,160 Z M120,300 L79.999,300 L79.9996591,389.999964 C79.9996591,395.426411 84.3293775,399.848115 89.7201926,399.996444 L89.9999574,400.000288 L160,400 L160,350.000234 C160,344.573836 164.329589,340.152172 169.720244,340.003844 L170,340 C175.519828,340 180,344.47934 180,350.000234 L180,350.000234 L180,400 L249.999105,400.000288 C255.425538,400.000288 259.848136,395.670559 259.996496,390.279729 L260.000341,389.999964 L260,300 L220,300 L220,349.999766 C220,355.426164 215.670411,359.847828 210.279756,359.996156 L210,360 C204.480172,360 200,355.519723 200,349.999766 L200,349.999766 L200,300 L140,300 L140,349.998828 C140,355.425226 135.670411,359.847796 130.279756,359.996155 L130,360 C124.480172,360 120,355.519723 120,349.999766 L120,349.999766 L120,300 Z M120,179.999 L89.9999574,179.999712 C84.4799652,179.999712 79.9996591,184.480029 79.9996591,190.000036 L79.9996591,190.000036 L79.999,280 L160,280 L160,230.000234 C160,224.573836 164.329589,220.152172 169.720244,220.003844 L170,220 C175.519828,220 180,224.47934 180,230.000234 L180,230.000234 L180,280 L260,280 L260.000341,190.000036 C260.000341,184.573589 255.670622,180.151885 250.279807,180.003556 L250.000043,179.999712 L220,179.999 L220,229.999766 C220,235.426164 215.670411,239.847828 210.279756,239.996156 L210,240 C204.480172,240 200,235.519723 200,229.999766 L200,229.999766 L200,179.999 L140,179.999 L140,229.998828 C140,235.425226 135.670411,239.847796 130.279756,239.996155 L130,240 C124.480172,240 120,235.519723 120,229.999766 L120,229.999766 L120,179.999 Z" id="Combined-Shape"/>
    </g>
  </g>
</svg>