<svg xmlns="http://www.w3.org/2000/svg" xmlns:xlink="http://www.w3.org/1999/xlink" width="512px" height="512px" viewBox="0 0 512 512" version="1.1" role="img">
  <title>Viu Mini</title>
  <defs>
    <linearGradient x1="0%" y1="50%" x2="100%" y2="50%" id="linearGradient-1">
      <stop stop-color="#E14A32" offset="0%"/>
      <stop stop-color="#9F215D" offset="100%"/>
    </linearGradient>
  </defs>
  <g id="ViU-Mini" stroke="none" stroke-width="1" fill="none" fill-rule="evenodd">
    <path d="M472,64 C489.673112,64 504,78.326888 504,96 L504,363 C504,380.673112 489.673112,395 472,395 L348.553846,395 L348.553846,410 L430,410 C439.830669,410 447.820682,417.880783 447.997024,427.669335 L448,428 L448,430 C448,439.830669 440.119217,447.820682 430.330665,448 L82,448 C72.1693315,448 64.1793185,440.119217 64.0029763,430.330665 L64,430 L64,428 C64,418.169331 71.8807833,410.179318 81.6693348,410.002976 L82,410 L163.446154,410 L163.446154,395 L40,395 C22.326888,395 8,380.673112 8,363 L8,96 C8,78.326888 22.326888,64 40,64 L472,64 Z M428.215385,423 L83.7846154,423 C80.4709069,423 77.7846154,425.686292 77.7846154,429 C77.7846154,432.238397 80.3501903,434.877572 83.5596771,434.995862 L83.7846154,435 L428.215385,435 C431.529093,435 434.215385,432.313708 434.215385,429 C434.215385,425.686292 431.529093,423 428.215385,423 Z M334.769231,395 L177.230769,395 L177.230769,410 L334.769231,410 L334.769231,395 Z M466.028169,78 L45.971831,78 C32.8495453,78 22.1869853,88.5313372 21.971831,101.603116 L21.971831,357 C21.971831,370.122286 32.5031682,380.784846 45.5749471,380.996785 L45.971831,381 L466.028169,381 C479.150455,381 489.813015,370.468663 490.028169,357.396884 L490.028169,102 C490.028169,88.745166 479.283003,78 466.028169,78 Z M308,250 C317.941125,250 326,258.058875 326,268 L326,302 C326,311.941125 317.941125,320 308,320 L205,320 C195.058875,320 187,311.941125 187,302 L187,268 C187,258.058875 195.058875,250 205,250 L308,250 Z M300,262 L213,262 C206.474543,262 201.165607,267.208544 201.0038,273.695025 L201,274 L201,295 C201,301.525457 206.208544,306.834393 212.695025,306.9962 L213,307 L300,307 C306.525457,307 311.834393,301.791456 311.9962,295.304975 L312,295 L312,274 C312,267.372583 306.627417,262 300,262 Z M257,204 C264.179702,204 270,209.820298 270,217 C270,224.179702 264.179702,230 257,230 C249.820298,230 244,224.179702 244,217 C244,209.820298 249.820298,204 257,204 Z M227.814579,186.100394 C243.762044,170.499393 269.334448,169.910578 286.043599,184.76123 C286.166108,184.855024 286.272637,184.927974 286.368514,185.026978 L286.368514,185.026978 L286.949099,185.563686 C287.146179,185.740852 287.348585,185.912807 287.540338,186.105605 L287.540338,186.105605 L290.661652,189.252901 C292.179697,190.727545 293.005301,192.702421 293.000025,194.791934 C292.994648,196.891868 292.158391,198.866744 290.640346,200.346599 C287.503053,203.420944 282.410943,203.426155 279.289629,200.372653 L279.289629,200.372653 L276.067112,197.31915 C265.930831,187.408294 249.434739,187.408294 239.293132,197.324361 L239.293132,197.324361 L234.829546,201.690974 C231.681599,204.775741 226.541552,204.77053 223.377626,201.670131 C220.219026,198.580153 220.203047,193.551774 223.35632,190.467007 L223.35632,190.467007 L225.944986,187.93458 Z M208.4199,165.391207 C234.878844,140.28273 276.448784,139.555101 303.779002,163.224138 C304.206622,163.498317 304.61286,163.814677 304.987027,164.178492 L304.987027,164.178492 L307.114433,166.287562 C307.135814,166.292834 307.141159,166.308652 307.15185,166.319198 L307.15185,166.319198 L309.845851,168.976626 C312.726936,171.818597 312.716246,176.448006 309.82447,179.311068 C306.927349,182.168858 302.228882,182.179403 299.347797,179.337431 L299.347797,179.337431 L295.520605,175.556924 C273.952557,155.457488 240.010275,155.584032 218.613275,175.973465 C218.581204,175.999828 218.554478,176.036737 218.522406,176.078918 L218.522406,176.078918 L213.658237,180.87178 C210.771806,183.724297 206.08403,183.703206 203.186909,180.845416 C200.284443,177.982354 200.268408,173.358218 203.154838,170.516247 L203.154838,170.516247 L208.019007,165.71284 C208.147293,165.586296 208.291615,165.507206 208.4199,165.391207 Z" id="Combined-Shape" fill="url(#linearGradient-1)"/>
  </g>
</svg>